<svg height="480pt" viewBox="0 0 480 480" width="480pt" xmlns="http://www.w3.org/2000/svg"><path d="m408 232 24 48-40 48-40-48 24-48zm0 0" fill="#2488ff"/><path d="m424 208v24h-64v-24zm0 0" fill="#898890"/><path d="m240 8c102.421875 0 192.726562 67.164062 222.191406 165.257812s-8.878906 203.902344-94.351562 260.34375c.671875-5.550781 1.019531-11.132812 1.039062-16.722656-.039062-71.160156-57.71875-128.839844-128.878906-128.878906 30.316406.03125 58.035156-17.09375 71.582031-44.214844 13.542969-27.121094 10.574219-59.570312-7.660156-83.785156h24.078125l-32-32v-48c0-4.417969-3.582031-8-8-8h-96c-4.417969 0-8 3.582031-8 8v48l-32 32h24.078125c-17.773437 23.609375-21.074219 55.101562-8.578125 81.886719 12.492188 26.78125 38.746094 44.484375 68.261719 46.035156-.046875.042969-.074219.097656-.082031.15625-69.445313 2.355469-124.53125 59.316406-124.558594 128.800781.019531 5.589844.367187 11.171875 1.039062 16.722656-85.472656-56.441406-123.816406-162.25-94.351562-260.34375s119.769531-165.257812 222.191406-165.257812zm192 272-24-48h16v-24h-16v-48c-.066406-8.808594-7.191406-15.933594-16-16-8.824219.027344-15.972656 7.175781-16 16v48h-16v24h16l-24 48 40 48zm-328-75.28125c13.050781-5.707031 22.085938-17.914062 23.734375-32.0625s-4.34375-28.105469-15.734375-36.65625l-8 32h-32l-8-32c-11.390625 8.550781-17.382812 22.507812-15.734375 36.65625s10.683594 26.355469 23.734375 32.0625v83.28125c-.015625 4.226562 1.65625 8.285156 4.640625 11.28125 2.984375 3.054688 7.089844 4.757812 11.359375 4.71875 8.824219-.027344 15.972656-7.175781 16-16zm0 0" fill="#ffde55"/><path d="m408 160v48h-32v-48c.027344-8.824219 7.175781-15.972656 16-16 8.808594.066406 15.933594 7.191406 16 16zm0 0" fill="#a78966"/><path d="m368.878906 416.878906c-.019531 5.589844-.367187 11.171875-1.039062 16.722656v.078126c-77.570313 51.09375-178.109375 51.09375-255.679688 0v-.078126c-.671875-5.550781-1.019531-11.132812-1.039062-16.722656.027344-69.484375 55.113281-126.445312 124.558594-128.800781 1.441406-.078125 2.878906-.078125 4.320312-.078125 71.160156.039062 128.839844 57.71875 128.878906 128.878906zm-72.878906-26.640625v-12.476562l-17.359375-5.761719c-.734375-2.34375-1.671875-4.621094-2.800781-6.800781l8.160156-16.398438-8.800781-8.800781-16.398438 8.160156c-2.179687-1.128906-4.457031-2.066406-6.800781-2.800781l-5.761719-17.359375h-12.476562l-5.761719 17.359375c-2.34375.734375-4.621094 1.671875-6.800781 2.800781l-16.398438-8.160156-8.800781 8.800781 8.160156 16.398438c-1.128906 2.179687-2.066406 4.457031-2.800781 6.800781l-17.359375 5.761719v12.476562l17.359375 5.761719c.734375 2.34375 1.671875 4.621094 2.800781 6.800781l-8.160156 16.398438 8.800781 8.800781 16.398438-8.160156c2.179687 1.128906 4.457031 2.066406 6.800781 2.800781l5.761719 17.359375h12.476562l5.761719-17.359375c2.34375-.734375 4.621094-1.671875 6.800781-2.800781l16.398438 8.160156 8.800781-8.800781-8.160156-16.398438c1.128906-2.179687 2.066406-4.457031 2.800781-6.800781zm0 0" fill="#a78966"/><path d="m328 160h-176l32-32h112zm0 0" fill="#898890"/><path d="m303.921875 160c18.234375 24.214844 21.203125 56.664062 7.660156 83.785156-13.546875 27.121094-41.265625 44.246094-71.582031 44.214844-1.441406 0-2.878906 0-4.238281-.078125-29.515625-1.550781-55.769531-19.253906-68.261719-46.035156-12.496094-26.785157-9.195312-58.277344 8.578125-81.886719zm0 0" fill="#ffdaaa"/><path d="m296 377.761719v12.476562l-17.359375 5.761719c-.734375 2.34375-1.671875 4.621094-2.800781 6.800781l8.160156 16.398438-8.800781 8.800781-16.398438-8.160156c-2.179687 1.128906-4.457031 2.066406-6.800781 2.800781l-5.761719 17.359375h-12.476562l-5.761719-17.359375c-2.34375-.734375-4.621094-1.671875-6.800781-2.800781l-16.398438 8.160156-8.800781-8.800781 8.160156-16.398438c-1.128906-2.179687-2.066406-4.457031-2.800781-6.800781l-17.359375-5.761719v-12.476562l17.359375-5.761719c.734375-2.34375 1.671875-4.621094 2.800781-6.800781l-8.160156-16.398438 8.800781-8.800781 16.398438 8.160156c2.179687-1.128906 4.457031-2.066406 6.800781-2.800781l5.761719-17.359375h12.476562l5.761719 17.359375c2.34375.734375 4.621094 1.671875 6.800781 2.800781l16.398438-8.160156 8.800781 8.800781-8.160156 16.398438c1.128906 2.179687 2.066406 4.457031 2.800781 6.800781zm-44.71875 17.519531c6.226562-6.230469 6.226562-16.332031 0-22.5625-6.230469-6.226562-16.332031-6.226562-22.5625 0-6.226562 6.230469-6.226562 16.332031 0 22.5625 2.972656 3.03125 7.035156 4.738281 11.28125 4.738281s8.308594-1.707031 11.28125-4.738281zm0 0" fill="#898890"/><path d="m296 80v48h-112v-48c0-4.417969 3.582031-8 8-8h96c4.417969 0 8 3.582031 8 8zm0 0" fill="#a78966"/><path d="m255.953125 384c0 8.808594-7.144531 15.953125-15.953125 15.953125s-15.953125-7.144531-15.953125-15.953125 7.144531-15.953125 15.953125-15.953125 15.953125 7.144531 15.953125 15.953125zm0 0" fill="#d80027"/><path d="m128 168c-.035156 15.910156-9.445312 30.300781-24 36.71875-10.21875 4.375-21.78125 4.375-32 0-13.050781-5.707031-22.085938-17.914062-23.734375-32.0625s4.34375-28.105469 15.734375-36.65625l8 32h32l8-32c10.0625 7.5625 15.988281 19.414062 16 32zm0 0" fill="#898890"/><path d="m104 204.71875v83.28125c-.027344 8.824219-7.175781 15.972656-16 16-4.269531.039062-8.375-1.664062-11.359375-4.71875-2.984375-2.996094-4.65625-7.054688-4.640625-11.28125v-83.28125c10.21875 4.375 21.78125 4.375 32 0zm0 0" fill="#898890"/><path d="m240 0c-132.546875 0-240 107.453125-240 240s107.453125 240 240 240 240-107.453125 240-240c-.148438-132.484375-107.515625-239.851562-240-240zm-120.238281 428.839844c-.386719-4.144532-.640625-8.136719-.640625-11.960938-.277344-65.355468 51.660156-118.984375 116.992187-120.800781 1.292969-.078125 2.597657-.078125 3.886719-.078125 66.730469.074219 120.804688 54.152344 120.878906 120.878906 0 3.824219-.253906 7.816406-.640625 11.960938-73.304687 46.875-167.171875 46.875-240.476562 0zm168.238281-308.839844h-96v-40h96zm-100.6875 16h105.375l16 16h-137.375zm-7.054688 32h119.484376c8.007812 11.800781 12.277343 25.738281 12.257812 40 0 39.765625-32.234375 72-72 72s-72-32.234375-72-72c-.019531-14.261719 4.25-28.199219 12.257812-40zm196.613282 249.136719v-.257813c-.074219-60.007812-39.164063-112.996094-96.480469-130.78125 29.214844-15.09375 47.578125-45.214844 47.609375-78.097656.023438-13.914062-3.289062-27.632812-9.664062-40h9.664062c3.234375 0 6.152344-1.949219 7.390625-4.9375s.550781-6.429688-1.734375-8.71875l-29.65625-29.65625v-44.6875c0-8.835938-7.164062-16-16-16h-96c-8.835938 0-16 7.164062-16 16v44.6875l-29.65625 29.65625c-2.285156 2.289062-2.972656 5.730469-1.734375 8.71875s4.15625 4.9375 7.390625 4.9375h9.664062c-6.375 12.367188-9.6875 26.085938-9.664062 40 .042969 32.890625 18.410156 63.015625 47.632812 78.113281-57.527343 17.484375-96.761718 70.644531-96.511718 130.765625v.257813c-75.871094-58.566407-106.078125-158.914063-75.136719-249.625 30.9375-90.714844 116.164063-151.695313 212.007813-151.695313s181.070312 60.980469 212.007812 151.695313c30.9375 90.710937.734375 191.058593-75.136719 249.625zm0 0"/><path d="m223.03125 367.03125c-9.367188 9.375-9.363281 24.566406.007812 33.9375 9.371094 9.371094 24.566407 9.371094 33.9375 0 9.371094-9.371094 9.375-24.5625.007813-33.9375-9.5-9.070312-24.453125-9.070312-33.953125 0zm22.625 22.625c-3.160156 3.035156-8.152344 3.035156-11.3125 0-3.121094-3.125-3.121094-8.1875 0-11.3125 3.140625-3.03125 8.128906-2.988281 11.214844.097656 3.085937 3.085938 3.128906 8.074219.097656 11.214844zm0 0"/><path d="m298.535156 370.183594-13.734375-4.582032-.128906-.304687 6.464844-12.929687c1.542969-3.078126.941406-6.804688-1.496094-9.238282l-8.800781-8.800781c-2.433594-2.4375-6.15625-3.046875-9.238282-1.503906l-12.921874 6.464843-.28125-.089843-4.582032-13.703125c-1.078125-3.273438-4.136718-5.488282-7.585937-5.496094h-12.460938c-3.441406 0-6.496093 2.203125-7.585937 5.464844l-4.582032 13.734375-.304687.128906-12.921875-6.527344c-3.082031-1.542969-6.804688-.9375-9.238281 1.503907l-8.800781 8.800781c-2.4375 2.433593-3.039063 6.15625-1.496094 9.238281l6.464844 12.929688-.105469.328124-13.710938 4.574219c-3.261719 1.089844-5.460937 4.144531-5.464843 7.585938v12.460937c.003906 3.441406 2.203124 6.496094 5.464843 7.585938l13.710938 4.589844.128906.304687-6.464844 12.929687c-1.542969 3.078126-.941406 6.804688 1.496094 9.238282l8.800781 8.800781c2.433594 2.4375 6.15625 3.046875 9.238282 1.503906l12.921874-6.464843.304688.128906 4.582031 13.703125c1.089844 3.261719 4.144531 5.464843 7.585938 5.464843h12.464843c3.4375 0 6.492188-2.203124 7.582032-5.464843l4.558594-13.742188.304687-.128906 12.921875 6.464844c3.082031 1.539062 6.804688.933593 9.238281-1.503907l8.800781-8.800781c2.4375-2.4375 3.039063-6.160156 1.496094-9.238281l-6.464844-12.929688.105469-.265624 13.710938-4.574219c3.273437-1.082031 5.488281-4.144531 5.488281-7.59375v-12.460938c0-3.441406-2.203125-6.496093-5.464844-7.585937zm-10.535156 14.28125-11.921875 4c-2.359375.730468-4.222656 2.558594-5.007813 4.902344-.625 2.070312-1.445312 4.074218-2.453124 5.984374-1.121094 2.230469-1.105469 4.863282.046874 7.082032l5.601563 11.199218-.648437.648438-11.203126-5.601562c-2.222656-1.148438-4.867187-1.148438-7.09375 0-1.902343.988281-3.890624 1.789062-5.945312 2.398437-2.359375.796875-4.195312 2.679687-4.933594 5.058594l-3.976562 11.863281h-.929688l-4-11.878906c-.738281-2.382813-2.574218-4.261719-4.933594-5.058594-2.054687-.609375-4.042968-1.414062-5.945312-2.398438-2.226562-1.148437-4.871094-1.148437-7.097656 0l-11.199219 5.601563-.648437-.648437 5.601562-11.203126c1.148438-2.214843 1.167969-4.847656.046875-7.078124-1.007813-1.910157-1.828125-3.914063-2.457031-5.984376-.78125-2.34375-2.644532-4.171874-5.007813-4.902343l-11.917969-4v-.929688l11.917969-4c2.363281-.734375 4.226563-2.558593 5.007813-4.902343.628906-2.070313 1.449218-4.074219 2.457031-5.984376 1.121094-2.230468 1.101563-4.863281-.046875-7.082031l-5.601562-11.199219.648437-.648437 11.199219 5.601563c2.226562 1.148437 4.871094 1.148437 7.097656 0 1.902344-.988282 3.890625-1.789063 5.945312-2.402344 2.359376-.792969 4.195313-2.675782 4.933594-5.054688l4-11.878906h.929688l4 11.878906c.738281 2.378906 2.574218 4.261719 4.933594 5.054688 2.054687.613281 4.042968 1.414062 5.945312 2.402344 2.226562 1.148437 4.871094 1.148437 7.097656 0l11.199219-5.601563.648437.648437-5.601562 11.199219c-1.148438 2.21875-1.167969 4.851563-.046875 7.082031 1.007813 1.910157 1.828125 3.914063 2.457031 5.984376.78125 2.34375 2.644532 4.167968 5.007813 4.902343l11.917969 4zm0 0"/><path d="m439.199219 276.425781-18.253907-36.425781h3.054688c4.417969 0 8-3.582031 8-8v-24c0-4.417969-3.582031-8-8-8h-8v-40c0-13.253906-10.746094-24-24-24s-24 10.746094-24 24v40h-8c-4.417969 0-8 3.582031-8 8v24c0 4.417969 3.582031 8 8 8h3.054688l-18.214844 36.425781c-1.421875 2.84375-1.023438 6.261719 1.015625 8.703125l40 48c1.519531 1.820313 3.769531 2.875 6.144531 2.875s4.625-1.054687 6.144531-2.875l40-48c2.050781-2.433594 2.464844-5.851562 1.054688-8.703125zm-55.199219-116.425781c0-4.417969 3.582031-8 8-8s8 3.582031 8 8v40h-16zm-16 56h48v8h-48zm24 99.503906-30.503906-36.609375 19.449218-38.894531h22.109376l19.449218 38.894531zm0 0"/><path d="m400 256h-16v16h-8v16h8v8h16v-8h8v-16h-8zm0 0"/><path d="m256 176h16v16h-16zm0 0"/><path d="m208 176h16v16h-16zm0 0"/><path d="m116.800781 129.601562c-2.136719-1.628906-4.953125-2.058593-7.480469-1.144531-2.53125.894531-4.445312 2.996094-5.097656 5.597657l-6.46875 25.945312h-19.515625l-6.476562-25.9375c-.652344-2.597656-2.558594-4.703125-5.085938-5.597656-2.523437-.898438-5.332031-.472656-7.476562 1.136718-12.890625 9.660157-20.070313 25.15625-19.101563 41.238282.964844 16.082031 9.945313 30.605468 23.902344 38.65625v78.503906c0 13.253906 10.746094 24 24 24s24-10.746094 24-24v-78.496094c13.960938-8.046875 22.945312-22.570312 23.910156-38.65625.964844-16.085937-6.214844-31.578125-19.109375-41.238281zm-20.800781 158.398438c0 4.417969-3.582031 8-8 8s-8-3.582031-8-8v-72.71875c5.289062.957031 10.710938.957031 16 0zm-8-88c-11.285156-.007812-21.734375-5.960938-27.492188-15.664062-5.761718-9.707032-5.984374-21.726563-.585937-31.640626l4.308594 17.242188c.890625 3.5625 4.09375 6.066406 7.769531 6.0625h32c3.671875 0 6.871094-2.5 7.761719-6.0625l4.308593-17.242188c5.429688 9.90625 5.222657 21.945313-.542968 31.660157-5.765625 9.714843-16.230469 15.664062-27.527344 15.644531zm0 0"/><path d="m328 416h16v16h-16zm0 0"/><path d="m304 416h16v16h-16zm0 0"/><path d="m328 392h16v16h-16zm0 0"/><path d="m88.097656 126.703125c3.699219 2.414063 8.660156 1.367187 11.070313-2.335937 2.777343-4.261719 5.777343-8.4375 8.902343-12.398438 1.816407-2.238281 2.289063-5.28125 1.234376-7.964844-1.054688-2.683594-3.46875-4.589844-6.320313-4.996094-2.855469-.40625-5.707031.757813-7.464844 3.039063-3.429687 4.34375-6.710937 8.914063-9.757812 13.601563-2.402344 3.699218-1.359375 8.644531 2.335937 11.054687zm0 0"/><path d="m195.039062 37.511719c-9.652343 2.402343-19.085937 5.617187-28.199218 9.601562-.085938 0-.191406 0-.28125.054688-.085938.054687 0 .089843-.078125.089843-.121094.019532-.230469.074219-.320313.15625-9.105468 3.992188-17.878906 8.699219-26.238281 14.074219-3 1.925781-4.359375 5.605469-3.339844 9.019531 1.019531 3.414063 4.175781 5.742188 7.738281 5.707032 1.535157.015625 3.039063-.429688 4.320313-1.277344 7.71875-4.988281 15.824219-9.347656 24.238281-13.042969.082032 0 .082032 0 .160156-.085937 8.390626-3.621094 17.058594-6.5625 25.921876-8.800782 4.230468-1.132812 6.808593-5.40625 5.839843-9.679687-1.144531-4.261719-5.46875-6.835937-9.761719-5.816406zm0 0"/><path d="m313.28125 49.761719c-9.246094-4.011719-18.796875-7.277344-28.5625-9.761719h-.238281c-9.699219-2.394531-19.566407-4.027344-29.519531-4.878906-4.394532-.273438-8.214844 2.984375-8.640626 7.367187-.191406 2.125.503907 4.234375 1.917969 5.832031 1.363281 1.625 3.324219 2.636719 5.441407 2.800782 9.167968.75 18.261718 2.21875 27.199218 4.398437 8.921875 2.25 17.640625 5.21875 26.082032 8.878907.976562.449218 2.042968.667968 3.117187.640624 3.746094-.054687 6.949219-2.695312 7.71875-6.359374.765625-3.664063-1.109375-7.367188-4.515625-8.917969zm0 0"/><path d="m371.761719 111.832031.238281.246094c3.097656 3.929687 6.070312 8.058594 8.800781 12.28125 2.410157 3.703125 7.367188 4.75 11.070313 2.335937 3.703125-2.410156 4.75-7.367187 2.335937-11.070312-3.046875-4.671875-6.328125-9.242188-9.757812-13.601562l-.050781-.101563-.078126-.089844c-6.265624-7.859375-13.140624-15.214843-20.558593-22-3.273438-2.980469-8.34375-2.746093-11.324219.523438-2.984375 3.273437-2.75 8.34375.523438 11.324219 6.8125 6.183593 13.101562 12.925781 18.800781 20.152343zm0 0"/><path d="m232 40c0 4.417969-3.582031 8-8 8s-8-3.582031-8-8 3.582031-8 8-8 8 3.582031 8 8zm0 0"/><path d="m344 72c0 4.417969-3.582031 8-8 8s-8-3.582031-8-8 3.582031-8 8-8 8 3.582031 8 8zm0 0"/><path d="m128 88c0 4.417969-3.582031 8-8 8s-8-3.582031-8-8 3.582031-8 8-8 8 3.582031 8 8zm0 0"/></svg>