<?xml version="1.0"?>
<svg xmlns="http://www.w3.org/2000/svg" viewBox="0 0 64 64" width="512" height="512"><path d="m56.04913 24.02972a9 9 0 1 0 -8.09826 0 6.53861 6.53861 0 0 0 -5.95087 6.51062v31.45966h20v-31.45966a6.53861 6.53861 0 0 0 -5.95087-6.51062z" fill="#65cecc"/><path d="m43 16a8.99187 8.99187 0 0 0 4.95087 8.02972 6.53861 6.53861 0 0 0 -5.95087 6.51062v31.45966h10v-55a9 9 0 0 0 -9 9z" fill="#99f2ed"/><path d="m16.04913 24.02972a9 9 0 1 0 -8.09826 0 6.53861 6.53861 0 0 0 -5.95087 6.51062v31.45966h20v-31.45966a6.53861 6.53861 0 0 0 -5.95087-6.51062z" fill="#e9cd4b"/><path d="m3 16a8.99187 8.99187 0 0 0 4.95087 8.02972 6.53861 6.53861 0 0 0 -5.95087 6.51062v31.45966h10v-55a9 9 0 0 0 -9 9z" fill="#f4db73"/><path d="m52.29688 15.04346c-1.12696-.35108-1.29688-.4878-1.29688-1.04346a1 1 0 0 1 2 0h2a2.99507 2.99507 0 0 0 -2-2.81573v-1.18427h-2v1.18427a2.99507 2.99507 0 0 0 -2 2.81573c0 2.11084 1.69141 2.6377 2.70117 2.95264 1.12891.35205 1.29883.48925 1.29883 1.04736a1 1 0 0 1 -2 0h-2a2.995 2.995 0 0 0 2 2.81567v1.18433h2v-1.18427a2.99507 2.99507 0 0 0 2-2.81573c0-2.11377-1.69238-2.64111-2.70312-2.95654z" fill="#e89c15"/><path d="m12.29688 15.04346c-1.12696-.35108-1.29688-.4878-1.29688-1.04346a1 1 0 0 1 2 0h2a2.99507 2.99507 0 0 0 -2-2.81573v-1.18427h-2v1.18427a2.99507 2.99507 0 0 0 -2 2.81573c0 2.11084 1.69141 2.6377 2.70117 2.95264 1.12891.35205 1.29883.48925 1.29883 1.04736a1 1 0 0 1 -2 0h-2a2.995 2.995 0 0 0 2 2.81567v1.18433h2v-1.18427a2.99507 2.99507 0 0 0 2-2.81573c0-2.11377-1.69238-2.64111-2.70312-2.95654z" fill="#e89c15"/><path d="m36.486 23.03717a11.00093 11.00093 0 1 0 -8.99566-.01147 8.99261 8.99261 0 0 0 -8.49034 8.9743v30h26v-29.75a9.245 9.245 0 0 0 -8.514-9.21283z" fill="#de2f55"/><path d="m21 13a10.99442 10.99442 0 0 0 6.4903 10.0257 8.99261 8.99261 0 0 0 -8.4903 8.9743v30h13v-60a11 11 0 0 0 -11 11z" fill="#ea5e82"/><path d="m32 12a2 2 0 1 1 2-2h2a3.99594 3.99594 0 0 0 -3-3.858v-1.142h-2v1.142a3.99158 3.99158 0 0 0 1 7.858 2 2 0 1 1 -2 2h-2a3.99594 3.99594 0 0 0 3 3.858v1.142h2v-1.142a3.99158 3.99158 0 0 0 -1-7.858z" fill="#e89c15"/></svg>
