<svg height="512pt" viewBox="0 -24 512.00042 512" width="512pt" xmlns="http://www.w3.org/2000/svg"><path d="m455.664062 416h-399.328124l-4.800782-6.398438c-33.507812-44.191406-51.6093748-98.144531-51.535156-153.601562 0-141.382812 114.617188-256 256-256 141.386719 0 256 114.617188 256 256 .070312 55.460938-18.039062 109.414062-51.550781 153.601562zm0 0" fill="#fc6454"/><path d="m72.480469 384h367.039062c26.40625-37.453125 40.550781-82.171875 40.480469-128 0-123.710938-100.289062-224-224-224s-224 100.289062-224 224c-.070312 45.828125 14.074219 90.546875 40.480469 128zm0 0" fill="#ff7761"/><path d="m85.183594 343.34375c-5.335938-10.347656-9.722656-21.160156-13.101563-32.304688l30.621094-9.277343c2.800781 9.277343 6.449219 18.28125 10.898437 26.894531zm342.816406-2.367188-28.625-14.320312c4.34375-8.65625 7.867188-17.699219 10.527344-27.007812l30.769531 8.800781c-3.214844 11.207031-7.457031 22.097656-12.671875 32.527343zm-332-87.25-32-.429687c.15625-11.640625 1.371094-23.238281 3.632812-34.65625l31.390626 6.222656c-1.878907 9.511719-2.890626 19.171875-3.023438 28.863281zm320-2.191406c-.285156-9.683594-1.433594-19.320312-3.441406-28.800781l31.296875-6.652344c2.421875 11.363281 3.808593 22.925781 4.144531 34.542969zm-300.367188-72.253906-28.066406-15.378906c5.601563-10.203125 12.113282-19.878906 19.457032-28.910156l24.832031 20.207031c-6.117188 7.527343-11.546875 15.585937-16.222657 24.082031zm279.648438-1.921875c-4.78125-8.441406-10.320312-16.429687-16.546875-23.871094l24.464844-20.527343c7.496093 8.921874 14.164062 18.507812 19.921875 28.640624zm-227.457031-54.800781-17.679688-26.6875c9.699219-6.417969 19.960938-11.949219 30.65625-16.527344l12.589844 29.457031c-8.917969 3.808594-17.472656 8.414063-25.566406 13.757813zm174.398437-1.214844c-8.152344-5.246094-16.761718-9.746094-25.726562-13.441406l12.222656-29.503906c10.777344 4.382812 21.128906 9.738281 30.929688 16zm-101.871094-24.589844-3.070312-31.839844c11.566406-1.128906 23.214844-1.210937 34.800781-.242187l-2.65625 31.871094c-9.679687-.777344-19.40625-.707031-29.074219.210937zm0 0" fill="#ed564a"/><path d="m271.183594 357.054688-30.398438-10.109376 58.941406-176.816406c1.339844-4.035156 4.230469-7.371094 8.035157-9.273437 3.804687-1.898438 8.207031-2.207031 12.238281-.855469 8.386719 2.789062 12.921875 11.855469 10.128906 20.238281zm0 0" fill="#fff"/><path d="m304 400c0 35.347656-28.652344 64-64 64s-64-28.652344-64-64 28.652344-64 64-64 64 28.652344 64 64zm0 0" fill="#bfc9d1"/><path d="m272 400c0 17.671875-14.328125 32-32 32s-32-14.328125-32-32 14.328125-32 32-32 32 14.328125 32 32zm0 0" fill="#57565c"/></svg>