<svg height="464pt" viewBox="0 0 464 464" width="464pt" xmlns="http://www.w3.org/2000/svg"><path d="m144 160-64 64v104h40c8.835938 0 16 7.164062 16 16v120h328v-304zm0 0" fill="#4891d3"/><path d="m428 160h-72l16-128h40zm0 0" fill="#fcbc04"/><path d="m378.71875 90.078125 7.28125-58.078125h-14l-16 128h72l-2-16c-13.699219-.101562-26.703125-6.050781-35.738281-16.351562-9.03125-10.300782-13.230469-23.972657-11.542969-37.570313zm0 0" fill="#e59730"/><path d="m360 0h64v32h-64zm0 0" fill="#fcbc04"/><path d="m362 112h60l-4.960938-40h-50zm0 0" fill="#a1d51c"/><path d="m415.039062 56-3.039062-24h-40l-2.960938 24zm0 0" fill="#e59730"/><path d="m408 16h16v-16h-51.679688c9.082032 10.15625 22.054688 15.972656 35.679688 16zm0 0" fill="#f9e109"/><path d="m264 104v56h56zm0 0" fill="#57b7eb"/><path d="m184 104v56h56zm0 0" fill="#57b7eb"/><path d="m264 160h40l-40-40zm0 0" fill="#4891d3"/><path d="m184 160h40l-40-40zm0 0" fill="#4891d3"/><path d="m296 424c-70.691406 0-128-57.308594-128-128v-136h-24l-64 64v104h40c8.835938 0 16 7.164062 16 16v120h328v-40zm0 0" fill="#2d72bc"/><path d="m0 368h96v96h-96zm0 0" fill="#fcbc04"/><path d="m32 368h32v40h-32zm0 0" fill="#f9e109"/><path d="m64 448c-26.507812 0-48-21.492188-48-48v-32h-16v96h96v-16zm0 0" fill="#e59730"/><path d="m184 208h96v96h-96zm0 0" fill="#fcbc04"/><path d="m216 208h32v40h-32zm0 0" fill="#f9e109"/><path d="m248 288c-26.507812 0-48-21.492188-48-48v-32h-16v96h96v-16zm0 0" fill="#e59730"/><path d="m184 336h96v96h-96zm0 0" fill="#fcbc04"/><path d="m216 336h32v40h-32zm0 0" fill="#f9e109"/><path d="m248 416c-26.507812 0-48-21.492188-48-48v-32h-16v96h96v-16zm0 0" fill="#e59730"/><path d="m320 208h96v96h-96zm0 0" fill="#fcbc04"/><path d="m352 208h32v40h-32zm0 0" fill="#f9e109"/><path d="m384 288c-26.507812 0-48-21.492188-48-48v-32h-16v96h96v-16zm0 0" fill="#e59730"/><path d="m320 336h96v96h-96zm0 0" fill="#fcbc04"/><path d="m352 336h32v40h-32zm0 0" fill="#f9e109"/><path d="m384 416c-26.507812 0-48-21.492188-48-48v-32h-16v96h96v-16zm0 0" fill="#e59730"/></svg>