<svg height="512pt" viewBox="0 0 512 512" width="512pt" xmlns="http://www.w3.org/2000/svg"><path d="m466 151h-15l-30 15.9375 30 14.0625h15c8.277344 0 15 6.722656 15 15v90c0 8.289062 6.710938 15 15 15s15-6.710938 15-15v-90c0-24.8125-20.1875-45-45-45zm0 0" fill="#9facba"/><path d="m451 106v45l-30 30h-30l-30-30v-45c0-24.902344 20.097656-45 45-45s45 20.097656 45 45zm0 0" fill="#d9e7ec"/><path d="m331 45v452c0 8.402344-6.597656 15-15 15h-301c-8.402344 0-15-6.597656-15-15v-452c0-8.402344 6.597656-15 15-15h301c8.402344 0 15 6.597656 15 15zm0 0" fill="#54469d"/><path d="m331 45v452c0 8.402344-6.597656 15-15 15h-151v-482h151c8.402344 0 15 6.597656 15 15zm0 0" fill="#463b85"/><path d="m30 60h271v422h-271zm0 0" fill="#d9e7ec"/><path d="m165 60h136v422h-136zm0 0" fill="#c5d3dd"/><path d="m270 407c0 8.402344-6.597656 15-15 15h-180c-8.402344 0-15-6.597656-15-15s6.597656-15 15-15h180c8.402344 0 15 6.597656 15 15zm0 0" fill="#b6c4cf"/><path d="m421 467v30c0 8.402344-6.597656 15-15 15s-15-6.597656-15-15v-30c0-8.402344 6.597656-15 15-15s15 6.597656 15 15zm0 0" fill="#d9e7ec"/><path d="m267.898438 182.199219-50.398438-1.199219-52.5 60-30 58.5 30 61.5c2.699219 0 5.097656-.601562 7.5-2.101562l90.300781-53.398438c.601563-.300781 1.199219-.898438 1.800781-1.199219 3.296876-3 5.398438-7.5 5.398438-11.699219v-102.902343c0-2.699219-.601562-5.398438-2.101562-7.5zm0 0" fill="#5a69e6"/><path d="m112.5 181-50.398438 1.199219c-1.5 2.402343-2.101562 4.800781-2.101562 7.5v102.898437c0 4.203125 2.101562 8.703125 5.398438 11.703125.601562.296875 92.101562 54.597657 92.101562 54.597657 2.402344 1.5 4.800781 2.101562 7.5 2.101562v-120zm0 0" fill="#7984eb"/><path d="m267.898438 182.199219-102.898438 58.800781-102.898438-58.800781c.296876-.296875.597657-.898438.898438-1.199219 1.199219-1.800781 2.699219-3 4.5-4.199219l90-53.699219c2.402344-1.5 5.097656-2.101562 7.5-2.101562s5.097656.601562 7.5 2.101562l90 53.699219c1.800781 1.199219 3.300781 2.699219 4.5 4.199219.300781.300781.597656.902344.898438 1.199219zm0 0" fill="#b5baf3"/><path d="m267.898438 182.199219-102.898438 58.800781v-120c2.402344 0 5.097656.601562 7.5 2.101562l90 53.699219c1.800781 1.199219 3.300781 2.699219 4.5 4.199219.300781.300781.597656.902344.898438 1.199219zm0 0" fill="#979fef"/><path d="m270 407c0 8.402344-6.597656 15-15 15h-90v-30h90c8.402344 0 15 6.597656 15 15zm0 0" fill="#9facba"/><path d="m240 30c0 16.5-13.5 30-30 30h-90c-16.5 0-30-13.5-30-30s13.5-30 30-30h90c16.5 0 30 13.5 30 30zm0 0" fill="#25d9f8"/><path d="m210 60h-45v-60h45c16.5 0 30 13.5 30 30s-13.5 30-30 30zm0 0" fill="#00c0f1"/><path d="m421 467v30c0 8.402344-6.597656 15-15 15v-60c8.402344 0 15 6.597656 15 15zm0 0" fill="#b6c4cf"/><path d="m451 106v45l-30 30h-15v-120c24.902344 0 45 20.097656 45 45zm0 0" fill="#b6c4cf"/><path d="m361 151v256c0 2.402344.601562 4.5 1.5 6.597656l30 60c2.699219 5.101563 7.800781 8.402344 13.5 8.402344s10.800781-3.300781 13.5-8.402344l30-60c.898438-2.097656 1.5-4.199218 1.5-6.597656v-256zm0 0" fill="#76e2f8"/><path d="m451 151v256c0 2.402344-.601562 4.5-1.5 6.597656l-30 60c-2.699219 5.101563-7.800781 8.402344-13.5 8.402344v-331zm0 0" fill="#00c0f1"/></svg>