<?xml version="1.0" encoding="iso-8859-1"?>
<!-- Generator: Adobe Illustrator 19.0.0, SVG Export Plug-In . SVG Version: 6.00 Build 0)  -->
<svg version="1.1" id="Capa_1" xmlns="http://www.w3.org/2000/svg" xmlns:xlink="http://www.w3.org/1999/xlink" x="0px" y="0px"
	 viewBox="0 0 512 512" style="enable-background:new 0 0 512 512;" xml:space="preserve">
<g>
	<g>
		<polygon points="21.513,369.939 21.513,473.147 47.593,468.615 47.593,365.295 		"/>
	</g>
</g>
<g>
	<g>
		<path d="M479.897,357.36c-0.361-0.042-0.726-0.067-1.093-0.075c-1.101-0.026-2.222,0.101-3.338,0.393
			c0,0-162.427,41.991-162.432,41.993c0.61-0.158,2.831,8.858,3.005,9.739c0.697,3.532,0.994,7.143,0.903,10.741
			c-0.881,34.758-38.497,57.712-69.865,42.952c-9.604-4.519-55.854-38.154-55.854-38.154s-13.166-7.749-14.623-15.758
			c-0.999-5.491,1.067-11.439,5.254-15.131c5.515-4.862,13.836-5.335,19.841-1.143c7.274,5.074,44.672,32.812,56.86,39.667
			c3.04,1.71,6.385,2.947,9.912,2.97c7.72,0.051,14.85-6.342,15.989-13.977c1.127-7.55-2.787-12.79-7.954-17.124
			c-3.478-2.918-87.994-64.253-87.994-64.253L79.862,359.547v103.458l53.764-9.101L272.965,512c0,0,210.399-131.645,211.794-132.701
			c3.26-2.466,5.782-5.463,5.728-10.193C490.417,363.158,485.801,358.042,479.897,357.36z"/>
	</g>
</g>
<g>
	<g>
		<path d="M256.003,0c-73.668,0-133.601,59.934-133.601,133.601s59.934,133.601,133.601,133.601s133.601-59.934,133.601-133.601
			S329.67,0,256.003,0z M256.003,117.466c20.107,0,36.465,16.359,36.465,36.466c0,14.316-8.296,26.725-20.331,32.689v5.134
			c0,8.911-7.224,16.135-16.135,16.135c-8.911,0-16.135-7.224-16.135-16.135v-1.36h-4.196c-8.911,0-16.135-7.224-16.135-16.135
			c0-8.911,7.224-16.135,16.135-16.135h20.331c2.313,0,4.196-1.883,4.196-4.195c0-2.314-1.883-4.197-4.196-4.197
			c-20.107,0-36.465-16.359-36.465-36.466c0-14.316,8.296-26.725,20.331-32.689v-5.134c0-8.911,7.224-16.135,16.135-16.135
			c8.911,0,16.135,7.224,16.135,16.135v1.36h4.196c8.911,0,16.135,7.224,16.135,16.135c0,8.911-7.224,16.135-16.135,16.135h-20.331
			c-2.313,0-4.196,1.883-4.196,4.195C251.807,115.585,253.688,117.466,256.003,117.466z"/>
	</g>
</g>
<g>
</g>
<g>
</g>
<g>
</g>
<g>
</g>
<g>
</g>
<g>
</g>
<g>
</g>
<g>
</g>
<g>
</g>
<g>
</g>
<g>
</g>
<g>
</g>
<g>
</g>
<g>
</g>
<g>
</g>
</svg>
