<svg height="512pt" viewBox="-24 0 512 512" width="512pt" xmlns="http://www.w3.org/2000/svg"><path d="m232 128c-26.472656 0-48 21.527344-48 48s21.527344 48 48 48 48-21.527344 48-48-21.527344-48-48-48zm24 40h-16v-16h16zm0 0"/><path d="m240.007812 80.335938-.007812-16.335938h32c30.871094 0 56-25.121094 56-56 0-4.414062-3.574219-8-8-8h-40c-20.34375 0-38.191406 10.910156-48 27.183594-9.808594-16.273438-27.65625-27.183594-48-27.183594h-40c-4.425781 0-8 3.585938-8 8 0 30.878906 25.128906 56 56 56h32v16.335938c-49.207031 4.078124-88 45.425781-88 95.664062 0 52.9375 43.0625 96 96 96s96-43.0625 96-96c0-50.238281-38.792969-91.585938-87.992188-95.664062zm-8.007812 159.664062c-35.289062 0-64-28.710938-64-64s28.710938-64 64-64 64 28.710938 64 64-28.710938 64-64 64zm0 0"/><path d="m448 288v24c0 13.230469-10.769531 24-24 24h-7.558594c.09375-1.777344.152344-3.550781.152344-5.335938 0-42.96875-28.027344-82.359374-76.882812-108.070312-.695313-.371094-1.4375-.632812-2.207032-.777344l-3.039062-.585937c-17.425782 39.289062-56.792969 66.769531-102.464844 66.769531-61.144531 0-111.007812-49.257812-111.984375-110.175781l-14.65625-11.398438c-3.007813-2.335937-7.230469-2.242187-10.121094.238281l-6.414062 5.488282c-14.800781 12.6875-21.992188 32.511718-18.792969 51.726562l3.625 21.738282c-14.664062 12.671874-25.753906 26.894531-33.039062 42.382812h-32.617188c-4.425781 0-8 3.585938-8 8v30c0 1.351562.34375 2.679688.992188 3.863281l32 58c1.414062 2.550781 4.097656 4.136719 7.007812 4.136719h17.054688c13.617187 17.167969 32.433593 32.265625 54.90625 44.0625l-23.023438 65.28125c-.859375 2.449219-.488281 5.167969 1.015625 7.28125 1.503906 2.117188 3.933594 3.375 6.535156 3.375h66.054688c3.394531 0 6.417969-2.144531 7.546875-5.335938l15.359375-43.558593c25.253906 3.550781 51.285156 3.542969 76.511719 0l15.359374 43.558593c1.136719 3.199219 4.160157 5.335938 7.542969 5.335938h69.335938c2.59375 0 5.03125-1.257812 6.527343-3.375 1.503907-2.121094 1.875-4.832031 1.015626-7.28125l-22.085938-62.617188c40.152344-21.125 66.695312-52.3125 74.519531-86.71875h9.824219c22.054688 0 40-17.945312 40-40v-24h-16zm-320 8h-8c-4.414062 0-8 3.59375-8 8v8h-16v-8c0-13.230469 10.769531-24 24-24h8zm160 16c0 8.824219-7.175781 16-16 16h-80c-8.824219 0-16-7.175781-16-16v-16h16v16h80v-16h16zm0 0"/></svg>