<svg height="464pt" viewBox="0 0 464 464" width="464pt" xmlns="http://www.w3.org/2000/svg"><path d="m64 11.3125-52.6875 52.6875h52.6875zm0 0"/><path d="m96 256c0 17.671875-14.328125 32-32 32s-32-14.328125-32-32 14.328125-32 32-32 32 14.328125 32 32zm0 0"/><path d="m233.121094 448h-18.785156c-6.953126 0-13.207032-3.863281-16.320313-10.089844l-8.566406-17.132812-11.65625 18.648437c-3.34375 5.375-9.136719 8.574219-15.472657 8.574219h-10.320312c-8.382812 0-15.664062-5.679688-17.695312-13.816406l-4.128907-16.488282c-.496093-2-3.855469-2-4.359375 0l-4.128906 16.488282c-2.023438 8.136718-9.304688 13.816406-17.6875 13.816406h-24v-16h24c1.03125 0 1.929688-.703125 2.175781-1.703125l4.128907-16.488281c2.03125-8.128906 9.3125-13.808594 17.695312-13.808594s15.664062 5.679688 17.695312 13.816406l4.128907 16.488282c.246093.992187 1.144531 1.695312 2.175781 1.695312h10.320312c.769532 0 1.503907-.398438 1.894532-1.046875l16.839844-26.945313-6.328126-12.648437c-4.398437-8.816406-6.726562-18.679687-6.726562-28.527344v-2.832031c0-13.230469 10.769531-24 24-24s24 10.769531 24 24c0 11.96875-3.351562 23.65625-9.695312 33.816406l-6.914063 11.070313 12.9375 25.875c.382813.757812 1.152344 1.238281 2.007813 1.238281h11.632812l14.902344-52.183594 79.128906-79.136718v-300.679688h-240v80h-80v384h320v-60.6875l-27.816406 27.816406zm70.878906-152h-176v-16h176zm0-32h-176v-16h176zm-176-32v-16h16v16zm176 0h-144v-16h144zm-16-216h16v16h-16zm0 32h16v16h-16zm0 32h16v16h-16zm-112-64h96v16h-96zm0 32h96v16h-96zm0 32h96v16h-96zm-160 32h288v16h-288zm0 32h288v16h-288zm0 32h288v16h-288zm48 32c26.472656 0 48 21.527344 48 48s-21.527344 48-48 48-48-21.527344-48-48 21.527344-48 48-48zm-48 112h112v16h-112zm0 32h112v16h-112zm48 96h-16v-16h16zm0 0"/><path d="m440 260.6875-11.3125 11.3125 13.167969 13.167969c3.90625 3.910156 6.144531 9.3125 6.144531 14.832031s-2.238281 10.921875-6.144531 14.832031l-57.855469 57.855469c-5.160156 5.160156-8 12.015625-8 19.3125s2.839844 14.160156 8 19.3125l10.34375 10.34375 11.3125-11.3125-10.34375-10.34375c-2.136719-2.144531-3.3125-4.976562-3.3125-8s1.175781-5.855469 3.3125-8l57.855469-57.855469c6.886719-6.886719 10.832031-16.410156 10.832031-26.144531s-3.945312-19.257812-10.832031-26.144531zm0 0"/><path d="m259.308594 383.996094 140.683594-140.6875 28.691406 28.691406-140.683594 140.6875zm0 0"/><path d="m464 228.304688c0-5.832032-2.054688-10.785157-5.785156-14.503907-3.734375-3.746093-8.726563-5.800781-14.046875-5.800781h-1.007813c-5.082031 0-9.847656 1.976562-13.433594 5.566406l-18.421874 18.425782 28.695312 28.695312 18.0625-18.0625c3.824219-3.824219 5.9375-8.914062 5.9375-14.320312zm0 0"/><path d="m192 352c-4.414062 0-8 3.585938-8 8v2.832031c0 7.382813 1.742188 14.777344 5.046875 21.375l1.953125 3.90625 1.742188-2.785156c4.753906-7.601563 7.257812-16.359375 7.257812-25.328125 0-4.414062-3.585938-8-8-8zm0 0"/><path d="m251.960938 399.273438-8.3125 29.078124 29.078124-8.3125zm0 0"/></svg>