<svg xmlns="http://www.w3.org/2000/svg" height="512pt" version="1.1" viewBox="0 0 512 512" width="512pt">
<g id="surface1">
<path d="M 512 256 C 512 397.386719 397.386719 512 256 512 C 114.613281 512 0 397.386719 0 256 C 0 114.613281 114.613281 0 256 0 C 397.386719 0 512 114.613281 512 256 Z M 512 256 " style=" stroke:none;fill-rule:nonzero;fill:rgb(35.686275%,70.980392%,90.588235%);fill-opacity:1;" />
<path d="M 44.808594 400.703125 L 467.191406 400.703125 C 483.222656 377.351562 495.476562 351.207031 503.082031 323.148438 L 8.917969 323.148438 C 16.523438 351.207031 28.777344 377.351562 44.808594 400.703125 Z M 44.808594 400.703125 " style=" stroke:none;fill-rule:nonzero;fill:rgb(50.588235%,77.254902%,91.372549%);fill-opacity:1;" />
<path d="M 267.632812 323.148438 L 8.917969 323.148438 C 16.523438 351.207031 28.777344 377.351562 44.808594 400.703125 L 267.632812 400.703125 Z M 267.632812 323.148438 " style=" stroke:none;fill-rule:nonzero;fill:rgb(27.843137%,58.823529%,80.392157%);fill-opacity:1;" />
<path d="M 33.144531 382.046875 C 77.125 459.636719 160.441406 512 256 512 C 351.558594 512 434.875 459.636719 478.855469 382.046875 Z M 33.144531 382.046875 " style=" stroke:none;fill-rule:nonzero;fill:rgb(27.843137%,58.823529%,80.392157%);fill-opacity:1;" />
<path d="M 314.542969 382.046875 L 33.144531 382.046875 C 77.125 459.636719 160.441406 512 256 512 C 269.070312 512 281.914062 511.011719 294.457031 509.121094 C 227.839844 490.582031 236.300781 382.046875 314.542969 382.046875 Z M 314.542969 382.046875 " style=" stroke:none;fill-rule:nonzero;fill:rgb(5.882353%,49.411765%,73.72549%);fill-opacity:1;" />
<path d="M 245.179688 443.535156 C 236.003906 427.644531 215.6875 422.203125 199.800781 431.375 C 183.910156 440.550781 178.46875 460.867188 187.640625 476.753906 C 196.816406 492.644531 217.132812 498.085938 233.019531 488.914062 C 248.910156 479.738281 254.351562 459.421875 245.179688 443.535156 Z M 245.179688 443.535156 " style=" stroke:none;fill-rule:nonzero;fill:rgb(27.843137%,28.627451%,47.45098%);fill-opacity:1;" />
<path d="M 208.195312 464.902344 C 201.113281 452.632812 202.75 437.730469 211.175781 427.351562 C 207.277344 427.972656 203.425781 429.296875 199.804688 431.386719 C 183.917969 440.558594 178.472656 460.878906 187.648438 476.765625 C 196.820312 492.65625 217.136719 498.097656 233.027344 488.925781 C 236.648438 486.835938 239.71875 484.160156 242.207031 481.097656 C 229.003906 483.203125 215.277344 477.171875 208.195312 464.902344 Z M 208.195312 464.902344 " style=" stroke:none;fill-rule:nonzero;fill:rgb(21.960784%,23.529412%,41.960784%);fill-opacity:1;" />
<path d="M 475.089844 143.585938 L 129.859375 143.585938 L 180.109375 323.148438 L 431.496094 323.148438 C 438.078125 323.148438 443.828125 318.699219 445.484375 312.328125 L 485.683594 157.277344 C 487.476562 150.347656 482.246094 143.585938 475.089844 143.585938 Z M 475.089844 143.585938 " style=" stroke:none;fill-rule:nonzero;fill:rgb(27.843137%,28.627451%,47.45098%);fill-opacity:1;" />
<path d="M 215.097656 308.585938 L 178.21875 176.796875 C 174.742188 164.375 178.484375 152.015625 186.507812 143.589844 L 129.859375 143.589844 L 180.109375 323.148438 L 223.386719 323.148438 C 219.5625 319.144531 216.667969 314.1875 215.097656 308.585938 Z M 215.097656 308.585938 " style=" stroke:none;fill-rule:nonzero;fill:rgb(21.960784%,23.529412%,41.960784%);fill-opacity:1;" />
<path d="M 435.539062 366.53125 L 194.78125 366.53125 L 110.859375 66.65625 C 106.386719 50.671875 91.667969 39.503906 75.066406 39.503906 L 72.421875 39.503906 L 72.421875 73.679688 L 75.066406 73.679688 C 76.40625 73.679688 77.589844 74.578125 77.953125 75.867188 L 165.363281 388.222656 C 167.429688 395.601562 174.15625 400.703125 181.816406 400.703125 L 435.539062 400.703125 C 444.976562 400.703125 452.625 393.054688 452.625 383.617188 C 452.625 374.179688 444.976562 366.53125 435.539062 366.53125 Z M 435.539062 366.53125 " style=" stroke:none;fill-rule:nonzero;fill:rgb(100%,100%,100%);fill-opacity:1;" />
<path d="M 72.421875 39.503906 L 17.085938 39.503906 C 7.648438 39.503906 0 47.15625 0 56.59375 C 0 66.027344 7.648438 73.679688 17.085938 73.679688 L 72.421875 73.679688 Z M 72.421875 39.503906 " style=" stroke:none;fill-rule:nonzero;fill:rgb(27.843137%,28.627451%,47.45098%);fill-opacity:1;" />
<path d="M 36.210938 56.59375 C 36.210938 47.15625 43.859375 39.507812 53.296875 39.507812 L 17.085938 39.507812 C 7.648438 39.503906 0 47.15625 0 56.59375 C 0 66.027344 7.648438 73.679688 17.085938 73.679688 L 53.296875 73.679688 C 43.859375 73.679688 36.210938 66.027344 36.210938 56.59375 Z M 36.210938 56.59375 " style=" stroke:none;fill-rule:nonzero;fill:rgb(21.960784%,23.529412%,41.960784%);fill-opacity:1;" />
<path d="M 216.414062 469.652344 C 211.125 469.652344 206.921875 465.328125 206.921875 460.160156 C 206.921875 454.109375 212.492188 449.6875 218.277344 450.847656 C 222.859375 451.828125 225.90625 455.703125 225.90625 460.160156 C 225.90625 465.441406 221.578125 469.652344 216.414062 469.652344 Z M 216.414062 469.652344 " style=" stroke:none;fill-rule:nonzero;fill:rgb(48.627451%,50.588235%,72.54902%);fill-opacity:1;" />
<path d="M 202.703125 383.617188 C 202.703125 375.964844 207.324219 369.394531 213.929688 366.53125 L 194.78125 366.53125 L 110.859375 66.65625 C 106.386719 50.671875 91.667969 39.507812 75.066406 39.507812 L 72.425781 39.507812 L 72.425781 73.679688 L 75.066406 73.679688 C 76.40625 73.679688 77.59375 74.578125 77.953125 75.867188 L 165.367188 388.222656 C 167.429688 395.601562 174.15625 400.703125 181.820312 400.703125 L 213.929688 400.703125 C 207.324219 397.839844 202.703125 391.269531 202.703125 383.617188 Z M 202.703125 383.617188 " style=" stroke:none;fill-rule:nonzero;fill:rgb(80%,90.196078%,92.941176%);fill-opacity:1;" />
<path d="M 422.960938 443.546875 C 413.789062 427.65625 393.472656 422.214844 377.582031 431.386719 C 361.695312 440.558594 356.25 460.878906 365.425781 476.765625 C 367.121094 479.707031 369.203125 482.285156 371.5625 484.484375 C 390.984375 474.640625 408.980469 462.386719 425.164062 448.125 C 424.554688 446.566406 423.824219 445.035156 422.960938 443.546875 Z M 422.960938 443.546875 " style=" stroke:none;fill-rule:nonzero;fill:rgb(27.843137%,28.627451%,47.45098%);fill-opacity:1;" />
<path d="M 385.972656 464.902344 C 378.890625 452.632812 380.527344 437.730469 388.953125 427.351562 C 385.054688 427.972656 381.203125 429.296875 377.582031 431.386719 C 361.695312 440.558594 356.25 460.878906 365.425781 476.765625 C 367.121094 479.703125 369.203125 482.285156 371.5625 484.484375 C 378.65625 480.886719 385.5625 476.964844 392.257812 472.746094 C 389.835938 470.519531 387.703125 467.902344 385.972656 464.902344 Z M 385.972656 464.902344 " style=" stroke:none;fill-rule:nonzero;fill:rgb(21.960784%,23.529412%,41.960784%);fill-opacity:1;" />
<path d="M 394.191406 469.652344 C 388.902344 469.652344 384.699219 465.328125 384.699219 460.160156 C 384.699219 454.109375 390.269531 449.6875 396.054688 450.847656 C 400.636719 451.828125 403.683594 455.703125 403.683594 460.160156 C 403.683594 465.441406 399.355469 469.652344 394.191406 469.652344 Z M 394.191406 469.652344 " style=" stroke:none;fill-rule:nonzero;fill:rgb(48.627451%,50.588235%,72.54902%);fill-opacity:1;" />
<path d="M 392.683594 57.636719 C 364.628906 9.042969 302.488281 -7.605469 253.890625 20.449219 C 205.296875 48.507812 188.644531 110.648438 216.703125 159.246094 C 244.761719 207.839844 306.902344 224.488281 355.496094 196.433594 C 404.09375 168.375 420.742188 106.234375 392.683594 57.636719 Z M 392.683594 57.636719 " style=" stroke:none;fill-rule:nonzero;fill:rgb(100%,80.392157%,21.960784%);fill-opacity:1;" />
<path d="M 273.289062 126.578125 C 250.945312 87.878906 256.953125 40.589844 284.871094 8.765625 C 274.253906 10.878906 263.796875 14.734375 253.898438 20.449219 C 205.300781 48.507812 188.652344 110.648438 216.710938 159.246094 C 244.765625 207.84375 306.90625 224.496094 355.507812 196.4375 C 365.402344 190.722656 373.972656 183.597656 381.113281 175.457031 C 339.59375 183.722656 295.632812 165.28125 273.289062 126.578125 Z M 273.289062 126.578125 " style=" stroke:none;fill-rule:nonzero;fill:rgb(100%,67.45098%,0%);fill-opacity:1;" />
<path d="M 366.890625 72.53125 C 347.058594 38.179688 303.132812 26.410156 268.785156 46.242188 C 234.433594 66.078125 222.664062 110 242.496094 144.351562 C 262.328125 178.703125 306.253906 190.472656 340.605469 170.640625 C 374.957031 150.804688 386.726562 106.882812 366.890625 72.53125 Z M 366.890625 72.53125 " style=" stroke:none;fill-rule:nonzero;fill:rgb(100%,67.45098%,0%);fill-opacity:1;" />
<path d="M 334.5 173.785156 C 309.578125 166.976562 287.226562 150.722656 273.289062 126.582031 C 259.351562 102.4375 256.449219 74.953125 263.011719 49.96875 C 233.179688 71.183594 223.828125 112.011719 242.503906 144.355469 C 261.175781 176.699219 301.210938 189.015625 334.5 173.785156 Z M 334.5 173.785156 " style=" stroke:none;fill-rule:nonzero;fill:rgb(100%,52.156863%,0%);fill-opacity:1;" />
<path d="M 338.859375 124.351562 C 338.859375 110.582031 327.800781 99.367188 314.097656 99.074219 L 314.097656 86.023438 L 323.714844 86.023438 C 328.902344 86.023438 333.109375 81.820312 333.109375 76.628906 C 333.109375 71.4375 328.902344 67.234375 323.714844 67.234375 L 314.097656 67.234375 L 314.097656 64.554688 C 314.097656 59.363281 309.890625 55.160156 304.703125 55.160156 C 299.511719 55.160156 295.304688 59.363281 295.304688 64.554688 L 295.304688 67.261719 C 281.605469 67.554688 270.542969 78.769531 270.542969 92.535156 C 270.542969 106.304688 281.605469 117.519531 295.304688 117.8125 L 295.304688 130.863281 L 285.691406 130.863281 C 280.5 130.863281 276.292969 135.070312 276.292969 140.257812 C 276.292969 145.449219 280.5 149.65625 285.691406 149.65625 L 295.304688 149.65625 L 295.304688 152.335938 C 295.304688 157.523438 299.511719 161.730469 304.703125 161.730469 C 309.890625 161.730469 314.097656 157.523438 314.097656 152.335938 L 314.097656 149.628906 C 327.800781 149.335938 338.859375 138.121094 338.859375 124.351562 Z M 289.335938 92.535156 C 289.335938 89.132812 291.972656 86.359375 295.304688 86.078125 L 295.304688 98.992188 C 291.972656 98.714844 289.335938 95.941406 289.335938 92.535156 Z M 314.097656 130.808594 L 314.097656 117.894531 C 317.433594 118.175781 320.066406 120.945312 320.066406 124.351562 C 320.070312 127.757812 317.433594 130.527344 314.097656 130.808594 Z M 314.097656 130.808594 " style=" stroke:none;fill-rule:nonzero;fill:rgb(100%,80.392157%,21.960784%);fill-opacity:1;" />
</g>
</svg>