<svg xmlns="http://www.w3.org/2000/svg" height="512pt" version="1.1" viewBox="0 0 512 512" width="512pt">
<g id="surface1">
<path d="M 512 256 C 512 397.386719 397.386719 512 256 512 C 114.613281 512 0 397.386719 0 256 C 0 114.613281 114.613281 0 256 0 C 397.386719 0 512 114.613281 512 256 Z M 512 256 " style=" stroke:none;fill-rule:nonzero;fill:rgb(21.960784%,23.529412%,41.960784%);fill-opacity:1;" />
<path d="M 43.09375 398.179688 C 144.570312 549.839844 367.367188 549.929688 468.90625 398.179688 Z M 43.09375 398.179688 " style=" stroke:none;fill-rule:nonzero;fill:rgb(16.078431%,18.823529%,34.901961%);fill-opacity:1;" />
<path d="M 270.085938 398.179688 L 43.09375 398.179688 C 91.894531 471.113281 176.175781 516.398438 269.230469 511.660156 C 204.34375 502.664062 206.277344 406.210938 270.085938 398.179688 Z M 270.085938 398.179688 " style=" stroke:none;fill-rule:nonzero;fill:rgb(9.803922%,14.117647%,28.627451%);fill-opacity:1;" />
<path d="M 190.929688 224.222656 L 134.480469 224.222656 C 131.738281 224.222656 129.519531 226.441406 129.519531 229.183594 L 129.519531 398.175781 L 195.890625 398.175781 L 195.890625 229.183594 C 195.890625 226.441406 193.667969 224.222656 190.929688 224.222656 Z M 190.929688 224.222656 " style=" stroke:none;fill-rule:nonzero;fill:rgb(99.607843%,31.372549%,37.254902%);fill-opacity:1;" />
<path d="M 306.53125 159.980469 L 250.082031 159.980469 C 247.34375 159.980469 245.121094 162.203125 245.121094 164.941406 L 245.121094 398.175781 L 311.492188 398.175781 L 311.492188 164.941406 C 311.492188 162.203125 309.269531 159.980469 306.53125 159.980469 Z M 306.53125 159.980469 " style=" stroke:none;fill-rule:nonzero;fill:rgb(100%,80.392157%,21.960784%);fill-opacity:1;" />
<path d="M 422.132812 95.742188 L 365.683594 95.742188 C 362.945312 95.742188 360.722656 97.964844 360.722656 100.703125 L 360.722656 398.179688 L 427.09375 398.179688 L 427.09375 100.703125 C 427.09375 97.964844 424.871094 95.742188 422.132812 95.742188 Z M 422.132812 95.742188 " style=" stroke:none;fill-rule:nonzero;fill:rgb(35.686275%,70.980392%,90.588235%);fill-opacity:1;" />
<path d="M 167.664062 224.222656 L 134.480469 224.222656 C 131.738281 224.222656 129.519531 226.441406 129.519531 229.183594 L 129.519531 398.175781 L 162.703125 398.175781 L 162.703125 229.183594 C 162.703125 226.441406 164.925781 224.222656 167.664062 224.222656 Z M 167.664062 224.222656 " style=" stroke:none;fill-rule:nonzero;fill:rgb(87.058824%,21.176471%,28.235294%);fill-opacity:1;" />
<path d="M 283.265625 159.980469 L 250.082031 159.980469 C 247.34375 159.980469 245.121094 162.203125 245.121094 164.941406 L 245.121094 398.175781 L 278.304688 398.175781 L 278.304688 164.941406 C 278.304688 162.203125 280.527344 159.980469 283.265625 159.980469 Z M 283.265625 159.980469 " style=" stroke:none;fill-rule:nonzero;fill:rgb(100%,67.45098%,0%);fill-opacity:1;" />
<path d="M 398.867188 95.742188 L 365.683594 95.742188 C 362.941406 95.742188 360.722656 97.964844 360.722656 100.703125 L 360.722656 398.179688 L 393.90625 398.179688 L 393.90625 100.703125 C 393.90625 97.964844 396.128906 95.742188 398.867188 95.742188 Z M 398.867188 95.742188 " style=" stroke:none;fill-rule:nonzero;fill:rgb(27.843137%,58.823529%,80.392157%);fill-opacity:1;" />
<path d="M 218.082031 425.832031 C 212.992188 425.832031 208.863281 421.707031 208.863281 416.613281 L 208.863281 398.179688 C 208.863281 393.085938 212.992188 388.960938 218.082031 388.960938 C 223.171875 388.960938 227.300781 393.085938 227.300781 398.179688 L 227.300781 416.613281 C 227.300781 421.703125 223.171875 425.832031 218.082031 425.832031 Z M 218.082031 425.832031 " style=" stroke:none;fill-rule:nonzero;fill:rgb(48.627451%,50.588235%,72.54902%);fill-opacity:1;" />
<path d="M 337.300781 425.832031 C 332.210938 425.832031 328.085938 421.707031 328.085938 416.613281 L 328.085938 398.179688 C 328.085938 393.085938 332.210938 388.960938 337.300781 388.960938 C 342.394531 388.960938 346.519531 393.085938 346.519531 398.179688 L 346.519531 416.613281 C 346.519531 421.703125 342.394531 425.832031 337.300781 425.832031 Z M 337.300781 425.832031 " style=" stroke:none;fill-rule:nonzero;fill:rgb(48.627451%,50.588235%,72.54902%);fill-opacity:1;" />
<path d="M 85.34375 274.65625 L 66.90625 274.65625 C 61.8125 274.65625 57.6875 270.527344 57.6875 265.4375 C 57.6875 260.34375 61.8125 256.21875 66.90625 256.21875 L 85.339844 256.21875 C 90.433594 256.21875 94.558594 260.34375 94.558594 265.4375 C 94.558594 270.527344 90.433594 274.65625 85.34375 274.65625 Z M 85.34375 274.65625 " style=" stroke:none;fill-rule:nonzero;fill:rgb(48.627451%,50.588235%,72.54902%);fill-opacity:1;" />
<path d="M 85.34375 155.433594 L 66.90625 155.433594 C 61.8125 155.433594 57.6875 151.308594 57.6875 146.214844 C 57.6875 141.125 61.8125 136.996094 66.90625 136.996094 L 85.339844 136.996094 C 90.433594 136.996094 94.558594 141.125 94.558594 146.214844 C 94.558594 151.308594 90.433594 155.433594 85.34375 155.433594 Z M 85.34375 155.433594 " style=" stroke:none;fill-rule:nonzero;fill:rgb(48.627451%,50.588235%,72.54902%);fill-opacity:1;" />
<path d="M 190.929688 287.5625 L 134.480469 287.5625 C 131.738281 287.5625 129.519531 289.78125 129.519531 292.519531 L 129.519531 398.179688 L 195.890625 398.179688 L 195.890625 292.519531 C 195.890625 289.78125 193.667969 287.5625 190.929688 287.5625 Z M 190.929688 287.5625 " style=" stroke:none;fill-rule:nonzero;fill:rgb(87.058824%,21.176471%,28.235294%);fill-opacity:1;" />
<path d="M 134.480469 287.5625 C 131.738281 287.5625 129.519531 289.78125 129.519531 292.519531 L 129.519531 398.179688 L 162.703125 398.179688 L 162.703125 287.5625 Z M 134.480469 287.5625 " style=" stroke:none;fill-rule:nonzero;fill:rgb(80%,12.941176%,21.568627%);fill-opacity:1;" />
<path d="M 306.53125 324.433594 L 250.082031 324.433594 C 247.34375 324.433594 245.121094 326.652344 245.121094 329.394531 L 245.121094 398.179688 L 311.492188 398.179688 L 311.492188 329.394531 C 311.492188 326.652344 309.269531 324.433594 306.53125 324.433594 Z M 306.53125 324.433594 " style=" stroke:none;fill-rule:nonzero;fill:rgb(100%,67.45098%,0%);fill-opacity:1;" />
<path d="M 250.082031 324.433594 C 247.34375 324.433594 245.121094 326.652344 245.121094 329.394531 L 245.121094 398.179688 L 278.308594 398.179688 L 278.308594 324.433594 Z M 250.082031 324.433594 " style=" stroke:none;fill-rule:nonzero;fill:rgb(100%,52.156863%,0%);fill-opacity:1;" />
<path d="M 422.132812 225.507812 L 365.683594 225.507812 C 362.945312 225.507812 360.722656 227.730469 360.722656 230.46875 L 360.722656 398.179688 L 427.09375 398.179688 L 427.09375 230.46875 C 427.09375 227.730469 424.871094 225.507812 422.132812 225.507812 Z M 422.132812 225.507812 " style=" stroke:none;fill-rule:nonzero;fill:rgb(27.843137%,58.823529%,80.392157%);fill-opacity:1;" />
<path d="M 365.683594 225.507812 C 362.945312 225.507812 360.722656 227.730469 360.722656 230.46875 L 360.722656 398.179688 L 393.910156 398.179688 L 393.910156 225.507812 Z M 365.683594 225.507812 " style=" stroke:none;fill-rule:nonzero;fill:rgb(5.882353%,49.411765%,73.72549%);fill-opacity:1;" />
<path d="M 215.667969 38.660156 C 210.558594 38.660156 206.449219 34.515625 206.449219 29.445312 C 206.449219 23.515625 211.945312 19.296875 217.464844 20.410156 C 221.910156 21.335938 224.886719 25.125 224.886719 29.445312 C 224.886719 34.449219 220.851562 38.660156 215.667969 38.660156 Z M 215.667969 38.660156 " style=" stroke:none;fill-rule:nonzero;fill:rgb(27.843137%,58.823529%,80.392157%);fill-opacity:1;" />
<path d="M 215.667969 75.3125 C 210.710938 75.3125 206.449219 71.296875 206.449219 66.097656 C 206.449219 60.179688 211.9375 55.910156 217.464844 57.0625 C 221.570312 57.832031 224.886719 61.554688 224.886719 66.097656 C 224.886719 71.335938 220.585938 75.3125 215.667969 75.3125 Z M 215.667969 75.3125 " style=" stroke:none;fill-rule:nonzero;fill:rgb(100%,52.156863%,0%);fill-opacity:1;" />
<path d="M 307.761719 40.464844 L 248.851562 40.464844 C 243.761719 40.464844 239.636719 36.339844 239.636719 31.246094 C 239.636719 26.15625 243.761719 22.03125 248.851562 22.03125 L 307.761719 22.03125 C 312.851562 22.03125 316.980469 26.15625 316.980469 31.246094 C 316.980469 36.339844 312.851562 40.464844 307.761719 40.464844 Z M 307.761719 40.464844 " style=" stroke:none;fill-rule:nonzero;fill:rgb(35.686275%,70.980392%,90.588235%);fill-opacity:1;" />
<path d="M 307.761719 76.210938 L 248.851562 76.210938 C 243.761719 76.210938 239.636719 72.085938 239.636719 66.992188 C 239.636719 61.902344 243.761719 57.777344 248.851562 57.777344 L 307.761719 57.777344 C 312.851562 57.777344 316.980469 61.902344 316.980469 66.992188 C 316.980469 72.085938 312.851562 76.210938 307.761719 76.210938 Z M 307.761719 76.210938 " style=" stroke:none;fill-rule:nonzero;fill:rgb(100%,80.392157%,21.960784%);fill-opacity:1;" />
<path d="M 215.667969 111.953125 C 210.605469 111.953125 206.449219 107.851562 206.449219 102.734375 C 206.449219 98.425781 209.429688 94.628906 213.863281 93.699219 C 219.417969 92.585938 224.886719 96.820312 224.886719 102.734375 C 224.886719 107.8125 220.765625 111.953125 215.667969 111.953125 Z M 215.667969 111.953125 " style=" stroke:none;fill-rule:nonzero;fill:rgb(87.058824%,21.176471%,28.235294%);fill-opacity:1;" />
<path d="M 307.761719 111.957031 L 248.851562 111.957031 C 243.761719 111.957031 239.636719 107.828125 239.636719 102.738281 C 239.636719 97.648438 243.761719 93.519531 248.851562 93.519531 L 307.761719 93.519531 C 312.851562 93.519531 316.980469 97.648438 316.980469 102.738281 C 316.980469 107.832031 312.851562 111.957031 307.761719 111.957031 Z M 307.761719 111.957031 " style=" stroke:none;fill-rule:nonzero;fill:rgb(99.607843%,31.372549%,37.254902%);fill-opacity:1;" />
<path d="M 278.304688 31.246094 C 278.304688 26.15625 282.433594 22.03125 287.523438 22.03125 L 248.851562 22.03125 C 243.761719 22.03125 239.632812 26.15625 239.632812 31.246094 C 239.632812 36.339844 243.761719 40.464844 248.851562 40.464844 L 287.523438 40.464844 C 282.433594 40.464844 278.304688 36.339844 278.304688 31.246094 Z M 278.304688 31.246094 " style=" stroke:none;fill-rule:nonzero;fill:rgb(27.843137%,58.823529%,80.392157%);fill-opacity:1;" />
<path d="M 278.304688 66.992188 C 278.304688 61.902344 282.433594 57.773438 287.523438 57.773438 L 248.851562 57.773438 C 243.761719 57.773438 239.632812 61.902344 239.632812 66.992188 C 239.632812 72.085938 243.761719 76.210938 248.851562 76.210938 L 287.523438 76.210938 C 282.433594 76.210938 278.304688 72.085938 278.304688 66.992188 Z M 278.304688 66.992188 " style=" stroke:none;fill-rule:nonzero;fill:rgb(100%,52.156863%,0%);fill-opacity:1;" />
<path d="M 278.304688 102.738281 C 278.304688 97.648438 282.433594 93.519531 287.523438 93.519531 L 248.851562 93.519531 C 243.761719 93.519531 239.632812 97.648438 239.632812 102.738281 C 239.632812 107.832031 243.761719 111.957031 248.851562 111.957031 L 287.523438 111.957031 C 282.433594 111.957031 278.304688 107.832031 278.304688 102.738281 Z M 278.304688 102.738281 " style=" stroke:none;fill-rule:nonzero;fill:rgb(87.058824%,21.176471%,28.235294%);fill-opacity:1;" />
<path d="M 474.804688 388.960938 L 94.558594 388.960938 L 94.558594 31.472656 L 112.375 49.289062 C 115.972656 52.886719 121.8125 52.886719 125.410156 49.289062 C 129.011719 45.6875 129.011719 39.851562 125.410156 36.253906 L 91.859375 2.699219 C 88.265625 -0.898438 82.421875 -0.898438 78.824219 2.699219 L 45.273438 36.253906 C 41.671875 39.851562 41.671875 45.6875 45.273438 49.289062 C 48.871094 52.886719 54.710938 52.886719 58.308594 49.289062 L 76.125 31.472656 L 76.125 388.960938 L 66.90625 388.960938 C 61.816406 388.960938 57.6875 393.085938 57.6875 398.175781 C 57.6875 403.269531 61.816406 407.394531 66.90625 407.394531 L 76.125 407.394531 L 76.125 416.613281 C 76.125 421.703125 80.25 425.832031 85.34375 425.832031 C 90.433594 425.832031 94.558594 421.703125 94.558594 416.613281 L 94.558594 407.394531 L 462.433594 407.394531 C 466.8125 401.4375 470.945312 395.292969 474.804688 388.960938 Z M 474.804688 388.960938 " style=" stroke:none;fill-rule:nonzero;fill:rgb(48.627451%,50.588235%,72.54902%);fill-opacity:1;" />
<path d="M 238.785156 398.175781 C 238.785156 393.964844 241.425781 390.378906 245.136719 388.960938 L 94.558594 388.960938 L 94.558594 31.472656 L 112.375 49.289062 C 115.972656 52.886719 121.8125 52.886719 125.410156 49.289062 C 129.011719 45.6875 129.011719 39.851562 125.410156 36.253906 L 91.859375 2.699219 C 88.265625 -0.898438 82.421875 -0.898438 78.824219 2.699219 L 45.273438 36.253906 C 41.671875 39.851562 41.671875 45.6875 45.273438 49.289062 C 48.871094 52.886719 54.710938 52.886719 58.308594 49.289062 L 76.125 31.472656 L 76.125 388.960938 L 66.90625 388.960938 C 61.816406 388.960938 57.6875 393.085938 57.6875 398.175781 C 57.6875 403.269531 61.816406 407.394531 66.90625 407.394531 L 76.125 407.394531 L 76.125 416.613281 C 76.125 421.703125 80.25 425.832031 85.34375 425.832031 C 90.433594 425.832031 94.558594 421.703125 94.558594 416.613281 L 94.558594 407.394531 L 245.136719 407.394531 C 241.425781 405.972656 238.785156 402.386719 238.785156 398.175781 Z M 238.785156 398.175781 " style=" stroke:none;fill-rule:nonzero;fill:rgb(39.215686%,40.392157%,61.176471%);fill-opacity:1;" />
</g>
</svg>